<?xml version="1.0" encoding="utf-8" ?>
<svg baseProfile="full" height="800px" version="1.1" width="800px" xmlns="http://www.w3.org/2000/svg" xmlns:ev="http://www.w3.org/2001/xml-events" xmlns:xlink="http://www.w3.org/1999/xlink"><defs /><polygon clip-path="url(#border_clip)" fill="black" fill-rule="evenodd" points="0.5,800.5 800.5,800.5 800.5,0.5 0.5000000000000568,0.4999999999998863 0.4999999999998863,800.4999999999999" stroke-width="0" /><polyline clip-path="url(#border_clip)" fill="none" points="0.5,800.5 800.5,800.5 800.5,0.5 0.5000000000000568,0.4999999999998863 0.4999999999998863,800.4999999999999" stroke="black" stroke-linecap="round" stroke-width="1" /><polyline clip-path="url(#border_clip)" fill="none" points="400.5,400.5 425.85012304827734,398.34238655215626 450.4709692113086,391.9316168191626 473.6542415720452,381.45211697417824 494.7329995943463,367.205363147766 513.1008457879086,349.60120850851223 528.2293706599967,329.1460925335848 539.6833540944764,306.4284716670463 547.133285842153,282.101890499359 550.3648449307022,256.86618047942227 549.2850652888316,231.44732703796825 543.9250102108876,206.5765843085175 534.4388787224353,182.96943827734907 521.0995695550412,161.30502355435706 504.290830346632,142.20658590682137 484.4962179206393,126.22355261342375 462.285187236599,113.8157264417797 438.2967092077688,105.34005795997524 413.2208886713264,101.04037671862108 387.7791113286737,101.04037671862108 362.7032907922313,105.34005795997524 338.7148127634012,113.8157264417797 316.5037820793608,126.22355261342375 296.7091696533682,142.20658590682137 279.90043044495906,161.30502355435704 266.56112127756484,182.969438277349 257.07498978911246,206.57658430851745 251.71493471116858,231.4473270379682 250.6351550692979,256.86618047942227 253.86671415784718,282.10189049935894 261.3166459055237,306.42847166704627 272.7706293400034,329.1460925335847 287.89915421209145,349.6012085085122 306.26700040565373,367.20536314776587 327.3457584279549,381.4521169741782 350.5290307886914,391.93161681916257 375.14987695172266,398.3423865521562 400.5,400.49999999999994" stroke="#ff007f" stroke-linecap="round" stroke-width="2" /><polyline clip-path="url(#border_clip)" fill="none" points="400.5,400.49999999999994 425.485720403763,395.704396778496 449.30158308683895,386.75516669909865 471.2624490412677,373.90976281737 490.73654413758845,357.53772401541937 507.1636341162756,338.1100440410829 520.0711415073698,316.1856218753344 529.087740823869,292.39518322618744 533.9540409199183,267.4231356984353 534.5300472018048,241.9878796329591 530.7991890175306,216.82114103690833 522.8687963643009,192.64692115872575 510.9670121999195,170.16066829041534 495.43622918527177,150.00927098638087 476.7232396708637,132.77244825750267 455.36638229437057,118.94607211068643 431.9800549581817,108.92790221405636 407.2370397203803,103.00614307550251 381.8491480798635,101.35115292372137 356.54674345551086,104.01054281214664 332.05772996039303,110.90780693562738 309.08661192572987,121.84452356314819 288.29422659396926,136.5060632697651 270.2787330345053,154.4706402523169 255.55840419631724,175.2214463390386 244.55671713884448,198.16151861971275 237.5901703680093,222.6309129817088 234.85917875044885,247.9256895005463 236.44230794269643,273.31816350986196 242.29401420028714,298.07783976436883 252.24595458836484,321.49242745805384 266.01182990141683,342.88833153380216 283.1956209701527,361.65003078677904 303.3029814119745,377.2377852888161 325.75545907635006,389.203163723443 349.9071370599985,397.2019439384052 375.0632155601796,401.0040155902606 400.50000000000006,400.4999999999999" stroke="#00ffff" stroke-linecap="round" stroke-width="2" /><polyline clip-path="url(#border_clip)" fill="none" points="400.50000000000006,400.4999999999999 424.8475689779069,393.11894863727497 447.5975166056821,381.72930784897056 468.0953683107997,366.6587368634995 485.75143822004827,348.3407885691941 500.05779334846426,327.30243698707716 510.60286590651833,304.1489171877358 517.0832933560806,279.54631378028967 519.3126455983116,254.20239887092384 517.226788228174,228.84627074803095 510.8857275644955,204.20737905192038 500.47188437743,180.99453983677205 486.28484597503297,159.8755442232958 468.7327476218654,141.45794726403284 448.3205312305231,126.27158969066676 425.63541910215605,114.75335536085169 401.33002061001764,107.23460290505994 376.1035578159991,103.93163314208653 350.6817501249792,104.93946649831025 325.7959366588597,110.22910944303015 302.1620369615745,119.64838857955527 280.45995529728145,132.92632839676617 261.31402104258177,149.68094674120584 245.27502786706836,169.43024374816162 232.8043884022794,191.60606810019792 224.26086024038074,215.5704617061284 219.89022513142763,240.6340125937721 219.81821828990934,266.0756880371837 224.04691122155384,291.1635773553981 232.45465212987955,315.1759476501354 244.79956561688925,337.42200674722864 260.72651099788914,357.2617760297522 279.77729905238425,374.1245014576249 301.4038732937293,387.5250731221737 324.9840765564054,397.077980974969 349.83954932491326,402.50840525002144 375.25524490194846,403.6601225280863 400.5,400.50000000000006" stroke="#7fff00" stroke-linecap="round" stroke-width="2" /><polyline clip-path="url(#border_clip)" fill="none" points="400.5,400.50000000000006 423.9426604912725,390.6143688393685 445.37743987680426,376.9091046300693 464.1876985798783,359.7784828702923 479.8322997053588,339.71532035842165 491.8611765629194,317.29679775101596 499.928280266289,293.1678551261889 503.80153492966036,268.02263823180135 503.36951406838534,242.5845291761239 498.6446461360644,217.5853360416397 489.76285698056506,193.7442400989115 476.9796595048582,171.74710627083746 460.6628030260108,152.22675204757056 441.2816937968936,135.74474247949468 419.39389104293144,122.77523497316412 395.6290669983337,113.6913386460131 370.67089238235724,108.75438065636536 345.2373684374696,108.10638829688628 320.06017134086466,111.76600312796137 295.86360321300435,119.62794469394453 273.3437552643466,131.46603925018343 253.14848251859033,146.93972636985953 235.85876620319036,165.603856247411 221.97199997723354,186.9214958479564 211.887680821469,210.2793754931168 205.8959162375344,235.0055315130853 204.16907838333128,260.3886374179664 206.75684523987925,285.69846746578116 213.5847714662507,310.2069039275456 224.45643005648688,333.20888370865276 239.0590631869257,354.04268173039924 256.9725796893516,372.1089475557 277.6816403090473,386.8879476099286 300.5904830768758,397.9545169695824 325.0400622964317,404.9902905830364 350.3270080888053,407.7928620534323 375.72386106337626,406.2816065021958 400.5,400.4999999999999" stroke="#bf00ff" stroke-linecap="round" stroke-width="2" /><polyline clip-path="url(#border_clip)" fill="none" points="400.5,400.4999999999999 422.7809093106036,388.2180980851589 442.66567652542824,372.3473681975529 459.582253095808,353.3443823402831 473.04397991374657,331.75582181781397 482.663587608396,308.20275021018375 488.164337580757,283.3627465045744 489.38798326931493,257.9504123815153 486.2993226154961,232.69681442560676 478.9872107628006,208.32845267093012 467.66200385610193,185.54636051780287 452.64950747835354,165.0059372782197 434.3816038171598,147.298093530929 413.3838272005649,132.93225169995037 390.26024543127255,122.32169089893864 365.6760818557859,115.77165764353953 340.33857809989786,113.4705844648953 314.9766480147883,115.48466904880217 290.3199081526559,121.75596984881577 267.0776880269211,132.10407295904827 245.9186239935975,146.2312822937622 227.45142380071292,163.73118376174315 212.20735517466994,184.1003370597477 200.62496221503392,206.7527587334163 193.0374492792438,231.03677985435783 189.66309529991221,256.2537933487288 190.59897429735375,281.67835165079697 195.8181627367626,306.57903650858873 205.1705140692894,330.2395005553081 218.38697817488062,351.9790753188295 235.087341444374,371.1723528143505 254.7911648327811,387.26717739343735 276.9316052158784,399.8005302567231 300.87172243484247,408.4118496617491 325.9228029049454,412.85340362782256 351.36417265144985,412.99741673405646 376.46392978773406,408.8397459855885 400.49999999999994,400.4999999999999" stroke="#ffff00" stroke-linecap="round" stroke-width="2" /><polyline clip-path="url(#border_clip)" fill="none" points="400.49999999999994,400.4999999999999 421.3750438249477,385.95639041848165 439.4919371983045,368.0940778903812 454.32949008306383,347.4269286253014 465.46085309739556,324.54949887901466 472.5657971941989,300.11993065249015 475.43992606774816,274.8410181448021 474.00055626326457,249.43998964359653 468.289095829369,224.64758649131696 458.4698530839148,201.17704098723965 444.8253097628386,179.7035579928023 427.74799453493006,160.8448905170828 407.72919066670664,145.14356808746814 385.3448026973127,133.05128916293256 361.238788713475,124.91592659177815 336.1046348477995,120.97151994315959 310.6654049453629,121.33154261479461 285.652939333369,125.98563740991187 261.78680110739333,134.79991449494491 239.7535756112287,147.52080316627126 220.18711862660717,163.78234661768053 203.6503214964177,183.1167298513933 190.61891776562507,204.96773786379862 181.46779719334717,228.7067569384097 176.46022085704513,253.65085871797325 175.74024761064308,279.082446809903 179.32858977358802,304.26990072796997 187.12201727513016,328.48862328163335 198.89632739550788,351.0418859179414 214.31279466999035,371.28087233346935 232.92791540378204,388.62334373807244 254.20616646583676,402.5703888047983 277.5354113143134,412.72077644039837 302.2445100503705,418.78249847336065 327.6226268911144,420.58117019734624 352.93967962085804,418.0650471016896 377.4673427272085,411.3065134667589 400.49999999999994,400.49999999999983" stroke="#ff007f" stroke-linecap="round" stroke-width="2" /><polyline clip-path="url(#border_clip)" fill="none" points="400.49999999999994,400.49999999999983 419.7404669907619,383.8540255818254 435.89099404764875,364.19583364721757 448.48695991242454,342.090954586555 457.1660015805769,318.1753055241609 461.6784388252046,293.13689614044773 461.89445704255337,267.69603588606776 457.8078417818135,242.58461199048182 449.5361575235549,218.5250343989115 437.31736556366997,196.20945335350362 421.502978300146,176.27984749105843 402.54794686137234,159.30955528649645 380.99757299050356,145.78678114880967 357.47182170713756,136.10055066908643 332.64748604246927,130.52951906255294 307.23871693601706,129.23395476537746 281.97647841334407,132.2511288035617 257.5875190819057,139.4942425733821 234.773464896801,150.75492487918495 214.19063465949145,165.709226393305 196.43115892083983,183.9269390884092 182.00594546325104,204.88397253916543 171.32998141397988,227.97743104957019 164.71039482104507,252.54295786443322 162.33761913847437,277.873847503633 164.27991480255355,303.24137639208436 170.48140550335583,327.9157669102102 180.76368564444485,351.1871817673538 194.8309527470618,372.3861447282335 212.2785171488731,390.9028002253194 232.60444418873925,406.20445779315025 255.22399395304546,417.8509166031573 279.48644317838324,425.50712924003085 304.6938053750697,428.95284040583937 330.1209106276351,428.08892326393294 355.036267412977,422.94023113755435 378.7231062796571,413.65488252497926 400.49999999999994,400.4999999999999" stroke="#00ffff" stroke-linecap="round" stroke-width="2" /><polyline clip-path="url(#border_clip)" fill="none" points="400.49999999999994,400.4999999999999 417.89508757389876,381.9340375242889 431.9022997601653,360.69534544775036 442.1186745670678,337.3949222722369 448.2503054923184,312.70307874953437 450.12079667802993,287.3301542614646 447.67633749838427,262.00608164918197 440.98725059336414,237.45938837431896 430.24596881443716,214.39623811034141 415.7614992817805,193.480115699372 397.9505338120414,175.31273990128608 377.3254614534411,160.41675304053672 354.47962798576174,149.2206855380527 330.0702664425642,142.04662787125164 304.79958971343365,139.1009646174336 279.39458915766176,140.46843714525522 254.58612038647007,146.10970575984211 231.08787787774037,155.8624814341845 209.57586328530635,169.44619456896552 190.66893810216598,186.47006646910177 174.91102014208616,206.44435133531186 162.75543601440938,228.79442535908387 154.55187974287261,252.87731760343124 150.53635270523066,278.00020710609556 150.82437430330478,303.44035407721503 155.407658680118,328.46589180718956 164.15435308891426,352.3568811394095 176.81283105661893,374.4260218090018 193.01893121933395,394.0384248200855 212.3064335817503,410.62987704624396 234.12047181756841,423.7230726149117 257.83349576346325,432.9413441282993 282.7633248947055,438.0194986986313 308.1927734168148,438.81144706469195 333.39028239509065,435.29440631388655 357.630965373217,427.5695553051557 380.21746203681363,415.8591239374198 400.4999999999999,400.49999999999983" stroke="#7fff00" stroke-linecap="round" stroke-width="2" /><polyline clip-path="url(#border_clip)" fill="none" points="400.4999999999999,400.49999999999983 415.85912393741984,380.21746203681363 427.56955530515575,357.630965373217 435.2944063138866,333.39028239509065 438.8114470646921,308.1927734168149 438.0194986986314,282.76332489470553 432.9413441282995,257.83349576346336 423.7230726149119,234.12047181756847 410.6298770462442,212.30643358175035 394.0384248200857,193.018931219334 374.42602180900207,176.812831056619 352.35688113940984,164.15435308891432 328.4658918071899,155.40765868011803 303.44035407721543,150.82437430330478 278.00020710609596,150.53635270523063 252.8773176034316,154.55187974287256 228.79442535908427,162.7554360144093 206.44435133531226,174.91102014208604 186.47006646910216,190.66893810216584 169.44619456896592,209.57586328530618 155.8624814341849,231.08787787774017 146.1097057598425,254.58612038646984 140.46843714525562,279.3945891576615 139.100964617434,304.79958971343336 142.04662787125204,330.07026644256393 149.22068553805303,354.47962798576145 160.41675304053703,377.32546145344077 175.31273990128636,397.9505338120411 193.48011569937225,415.7614992817802 214.39623811034164,430.2459688144369 237.45938837431916,440.9872505933639 262.00608164918214,447.676337498384 287.3301542614647,450.1207966780297 312.7030787495345,448.2503054923182 337.394922272237,442.1186745670676 360.69534544775047,431.9022997601652 381.934037524289,417.89508757389865 400.49999999999994,400.4999999999999" stroke="#bf00ff" stroke-linecap="round" stroke-width="2" /><polyline clip-path="url(#border_clip)" fill="none" points="400.49999999999994,400.4999999999999 413.65488252497937,378.72310627965703 422.94023113755446,355.036267412977 428.0889232639331,330.1209106276351 428.95284040583954,304.69380537506976 425.5071292400311,279.4864431783833 417.85091660315754,255.22399395304552 406.20445779315054,232.6044441887393 390.9028002253197,212.27851714887316 372.38614472823383,194.83095274706184 351.1871817673542,180.7636856444449 327.91576691021066,170.4814055033559 303.2413763920848,164.27991480255358 277.87384750363344,162.3376191384744 252.54295786443373,164.71039482104507 227.97743104957073,171.32998141397985 204.88397253916597,182.00594546325098 183.92693908840974,196.43115892083972 165.70922639330553,214.1906346594913 150.7549248791855,234.77346489680082 139.49424257338262,257.5875190819055 132.2511288035622,281.97647841334384 129.23395476537792,307.2387169360168 130.5295190625534,332.647486042469 136.10055066908683,357.4718217071372 145.78678114881004,380.9975729905032 159.3095552864968,402.547946861372 176.27984749105875,421.5029783001457 196.20945335350387,437.31736556366957 218.5250343989117,449.53615752355455 242.584611990482,457.8078417818132 267.6960358860679,461.8944570425531 293.13689614044785,461.6784388252043 318.17530552416093,457.1660015805767 342.090954586555,448.48695991242437 364.19583364721757,435.89099404764863 383.85402558182545,419.7404669907618 400.49999999999983,400.4999999999999" stroke="#ffff00" stroke-linecap="round" stroke-width="2" /><polyline clip-path="url(#border_clip)" fill="none" points="400.49999999999983,400.4999999999999 411.30651346675893,377.4673427272085 418.06504710168963,352.93967962085804 420.58117019734635,327.62262689111446 418.78249847336076,302.24451005037054 412.72077644039854,277.53541131431354 402.57038880479854,254.2061664658369 388.6233437380727,232.92791540378218 371.2808723334697,214.3127946699905 351.0418859179417,198.89632739550802 328.48862328163375,187.1220172751303 304.2699007279704,179.32858977358813 279.0824468099035,175.74024761064314 253.6508587179738,176.46022085704513 228.70675693841028,181.4677971933471 204.96773786379921,190.61891776562496 183.11672985139393,203.65032149641752 163.78234661768116,220.18711862660695 147.5208031662719,239.75357561122843 134.79991449494554,261.786801107393 125.98563740991244,285.65293933336864 121.33154261479513,310.6654049453625 120.97151994316005,336.1046348477991 124.91592659177854,361.23878871347455 133.0512891629329,385.34480269731216 145.14356808746842,407.72919066670613 160.84489051708303,427.74799453492955 179.70355799280247,444.82530976283806 201.17704098723976,458.46985308391436 224.647586491317,468.28909582936853 249.43998964359653,474.0005562632641 274.8410181448021,475.4399260677478 300.1199306524901,472.5657971941986 324.54949887901455,465.4608530973952 347.42692862530123,454.3294900830636 368.0940778903811,439.49193719830436 385.95639041848153,421.37504382494757 400.4999999999998,400.4999999999999" stroke="#ff007f" stroke-linecap="round" stroke-width="2" /><polyline clip-path="url(#border_clip)" fill="none" points="400.4999999999998,400.4999999999999 408.8397459855883,376.46392978773406 412.99741673405634,351.36417265144985 412.8534036278225,325.9228029049455 408.4118496617491,300.8717224348426 399.8005302567231,276.93160521587856 387.26717739343746,254.7911648327813 371.17235281435063,235.08734144437423 351.9790753188297,218.38697817488085 330.2395005553084,205.17051406928962 306.57903650858907,195.8181627367628 281.67835165079737,190.59897429735392 256.25379334872923,189.66309529991236 231.03677985435834,193.0374492792439 206.75275873341684,200.62496221503397 184.10033705974828,212.20735517466994 163.73118376174378,227.45142380071286 146.23128229376286,245.91862399359735 132.10407295904895,267.0776880269209 121.75596984881645,290.31990815265567 115.48466904880286,314.97664801478794 113.47058446489592,340.33857809989746 115.7716576435401,365.67608185578547 122.32169089893915,390.260245431272 132.93225169995083,413.3838272005643 147.2980935309294,434.3816038171592 165.00593727822005,452.6495074783529 185.54636051780312,467.6620038561013 208.3284526709303,478.9872107628 232.69681442560687,486.2993226154955 257.9504123815153,489.3879832693143 283.3627465045743,488.1643375807564 308.20275021018364,482.66358760839546 331.75582181781385,473.04397991374606 353.3443823402829,459.58225309580763 372.34736819755267,442.6656765254279 388.21809808515866,422.7809093106033 400.49999999999966,400.4999999999998" stroke="#00ffff" stroke-linecap="round" stroke-width="2" /><polyline clip-path="url(#border_clip)" fill="none" points="400.49999999999966,400.4999999999998 406.28160650219553,375.72386106337615 407.7928620534321,350.32700808880526 404.99029058303626,325.04006229643176 397.9545169695823,300.59048307687584 386.88794760992846,277.68164030904745 372.10894755569996,256.97257968935185 354.0426817303993,239.05906318692593 333.2088837086529,224.45643005648714 310.2069039275458,213.58477146625097 285.69846746578145,206.75684523987954 260.3886374179667,204.16907838333157 235.0055315130857,205.89591623753466 210.2793754931173,211.8876808214692 186.92149584795698,221.97199997723368 165.6038562474116,235.85876620319044 146.93972636986018,253.14848251859033 131.4660392501841,273.34375526434656 119.62794469394527,295.86360321300424 111.76600312796211,320.0601713408644 108.10638829688702,345.2373684374693 108.75438065636604,370.67089238235684 113.69133864601372,395.6290669983332 122.77523497316469,419.3938910429309 135.7447424794952,441.28169379689297 152.22675204757098,460.6628030260101 171.7471062708378,476.97965950485747 193.74424009891175,489.7628569805644 217.58533604163986,498.6446461360637 242.584529176124,503.36951406838466 268.0226382318014,503.80153492965974 293.1678551261888,499.92828026628837 317.29679775101584,491.86117656291884 339.7153203584215,479.8322997053583 359.77848287029207,464.1876985798778 376.90910463006907,445.3774398768039 390.61436883936824,423.94266049127214 400.4999999999998,400.4999999999998" stroke="#7fff00" stroke-linecap="round" stroke-width="2" /><polyline clip-path="url(#border_clip)" fill="none" points="400.4999999999998,400.4999999999998 403.66012252808605,375.2552449019483 402.5084052500212,349.83954932491326 397.0779809749688,324.9840765564054 387.5250731221735,301.40387329372936 374.1245014576248,279.77729905238436 357.2617760297522,260.7265109978893 337.42200674722875,244.79956561688948 315.17594765013564,232.45465212987978 291.1635773553984,224.04691122155407 266.075688037184,219.81821828990957 240.63401259377252,219.89022513142783 215.57046170612892,224.26086024038088 191.6060681001985,232.8043884022795 169.4302437481623,245.2750278670684 149.68094674120658,261.3140210425817 132.92632839676696,280.45995529728134 119.64838857955607,302.16203696157424 110.22910944303095,325.79593665885943 104.93946649831105,350.6817501249788 103.93163314208732,376.10355781599867 107.23460290506074,401.3300206100171 114.75335536085242,425.6354191021554 126.27158969066744,448.3205312305224 141.45794726403346,468.7327476218647 159.87554422329637,486.2848459750321 180.99453983677253,500.47188437742915 204.20737905192078,510.8857275644946 228.84627074803126,517.2267882281732 254.20239887092407,519.3126455983108 279.54631378028984,517.0832933560798 304.14891718773583,510.60286590651765 327.30243698707716,500.05779334846363 348.34078856919405,485.7514382200477 366.65873686349937,468.0953683107992 381.7293078489705,447.5975166056817 393.11894863727485,424.84756897790663 400.4999999999998,400.49999999999983" stroke="#bf00ff" stroke-linecap="round" stroke-width="2" /><polyline clip-path="url(#border_clip)" fill="none" points="400.4999999999998,400.49999999999983 401.0040155902605,375.06321556017946 397.2019439384051,349.9071370599984 389.203163723443,325.75545907635006 377.2377852888162,303.30298141197454 361.65003078677915,283.19562097015285 342.8883315338024,266.011829901417 321.4924274580542,252.24595458836504 298.07783976436923,242.29401420028734 273.3181635098624,236.44230794269663 247.92568950054687,234.85917875044905 222.63091298170946,237.59017036800947 198.1615186197135,244.55671713884462 175.22144633903943,255.55840419631733 154.4706402523178,270.2787330345053 136.506063269766,288.29422659396914 121.8445235631491,309.0866119257297 110.90780693562834,332.05772996039275 104.0105428121476,356.5467434555105 101.35115292372228,381.849148079863 103.00614307550342,407.23703972037976 108.92790221405721,431.9800549581811 118.94607211068723,455.3663822943698 132.7724482575034,476.72323967086294 150.00927098638152,495.4362291852709 170.1606682904159,510.9670121999186 192.64692115872623,522.8687963643 216.82114103690873,530.7991890175297 241.98787963295942,534.5300472018039 267.42313569843554,533.9540409199175 292.39518322618756,529.0877408238681 316.1856218753344,520.071141507369 338.11004404108286,507.16363411627486 357.53772401541926,490.73654413758777 373.9097628173698,471.26244904126713 386.7551666990984,449.30158308683843 395.7043967784958,425.4857204037626 400.4999999999998,400.4999999999997" stroke="#ffff00" stroke-linecap="round" stroke-width="2" /><polyline clip-path="url(#border_clip)" fill="none" points="400.4999999999998,400.4999999999997 398.34238655215603,375.1498769517225 391.93161681916246,350.52903078869133 381.4521169741781,327.3457584279548 367.20536314776587,306.2670004056538 349.6012085085123,287.89915421209156 329.1460925335849,272.77062934000355 306.42847166704655,261.3166459055239 282.10189049935934,253.86671415784738 256.8661804794227,250.6351550692981 231.44732703796882,251.71493471116875 206.5765843085182,257.0749897891126 182.96943827734987,266.5611212775649 161.30502355435797,279.90043044495906 142.2065859068224,296.7091696533681 126.22355261342483,316.5037820793606 113.81572644178084,338.7148127634009 105.34005795997638,362.70329079223086 101.04037671862221,387.77911132867314 101.04037671862221,413.2208886713258 105.34005795997632,438.29670920776806 113.81572644178073,462.28518723659806 126.22355261342466,484.4962179206384 142.20658590682223,504.2908303466309 161.3050235543578,521.09956955504 182.9694382773497,534.4388787224341 206.57658430851802,543.9250102108865 231.44732703796865,549.2850652888303 256.8661804794226,550.3648449307011 282.1018904993592,547.1332858421518 306.42847166704644,539.6833540944754 329.1460925335848,528.2293706599958 349.6012085085122,513.1008457879077 367.2053631477658,494.73299959434553 381.452116974178,473.6542415720445 391.9316168191624,450.4709692113081 398.34238655215603,425.85012304827694 400.4999999999998,400.49999999999966" stroke="#ff007f" stroke-linecap="round" stroke-width="2" /><polyline clip-path="url(#border_clip)" fill="none" points="400.4999999999998,400.49999999999966 395.70439677849583,375.51427959623675 386.75516669909854,351.69841691316094 373.90976281736994,329.73755095873224 357.5377240154194,310.2634558624116 338.1100440410831,293.8363658837245 316.1856218753346,280.92885849263024 292.3951832261878,271.91225917613116 267.4231356984358,267.04595908008184 241.98787963295965,266.4699527981953 216.82114103690895,270.2008109824695 192.64692115872646,278.1312036356992 170.16066829041614,290.03298780008055 150.00927098638175,305.5637708147282 132.77244825750364,324.27676032913615 118.94607211068745,345.6336177056292 108.92790221405744,369.01994504181795 103.00614307550364,393.7629602796193 101.35115292372251,419.150851920136 104.01054281214778,444.4532565444885 110.90780693562846,468.9422700396062 121.84452356314921,491.91338807426933 136.50606326976606,512.7057734060298 154.47064025231782,530.7212669654937 175.22144633903943,545.4415958036817 198.1615186197135,556.4432828611544 222.63091298170943,563.4098296319896 247.9256895005468,566.1408212495501 273.31816350986236,564.5576920573026 298.0778397643692,558.7059857997118 321.49242745805407,548.7540454116341 342.88833153380233,534.9881700985823 361.6500307867791,517.8043790298465 377.2377852888161,497.6970185880248 389.20316372344297,475.2445409236493 397.20194393840507,451.09286294000094 401.0040155902605,425.9367844398199 400.4999999999998,400.4999999999996" stroke="#00ffff" stroke-linecap="round" stroke-width="2" /><polyline clip-path="url(#border_clip)" fill="none" points="400.4999999999998,400.4999999999996 393.1189486372749,376.1524310220928 381.72930784897056,353.40248339431776 366.6587368634995,332.9046316892002 348.3407885691942,315.24856177995173 327.30243698707733,300.9422066515358 304.14891718773606,290.3971340934817 279.54631378029006,283.9167066439195 254.20239887092433,281.6873544016884 228.84627074803154,283.77321177182614 204.20737905192107,290.11427243550463 180.99453983677284,300.52811562257006 159.87554422329669,314.71515402496703 141.4579472640338,332.26725237813446 126.27158969066778,352.67946876947667 114.75335536085277,375.36458089784367 107.23460290506102,399.66997938998196 103.9316331420876,424.89644218400036 104.93946649831133,450.3182498750202 110.22910944303118,475.20406334113954 119.64838857955624,498.83796303842473 132.92632839676708,520.5400447027176 149.6809467412067,539.6859789574172 169.43024374816238,555.7249721329306 191.60606810019857,568.1956115977194 215.57046170612895,576.7391397596181 240.63401259377252,581.1097748685712 266.075688037184,581.1817817100895 291.16357735539833,576.953088778445 315.1759476501355,568.5453478701193 337.4220067472287,556.2004343831096 357.2617760297521,540.2734890021098 374.1245014576247,521.2227009476148 387.5250731221735,499.59612670626984 397.0779809749688,476.01592344359386 402.50840525002116,451.16045067508605 403.66012252808605,425.744755098051 400.49999999999983,400.49999999999955" stroke="#7fff00" stroke-linecap="round" stroke-width="2" /><polyline clip-path="url(#border_clip)" fill="none" points="400.49999999999983,400.49999999999955 390.6143688393683,377.0573395087271 376.9091046300691,355.6225601231954 359.7784828702922,336.81230142012146 339.71532035842165,321.167700294641 317.296797751016,309.1388234370804 293.167855126189,301.0717197337109 268.02263823180164,297.1984650703395 242.58452917612425,297.63048593161454 217.58533604164012,302.3553538639355 193.744240098912,311.2371430194348 171.74710627083806,324.0203404951416 152.22675204757124,340.33719697398897 135.74474247949547,359.7183062031061 122.77523497316497,381.60610895706816 113.691338646014,405.3709330016658 108.75438065636632,430.32910761764214 108.10638829688725,455.7626315625297 111.76600312796234,480.9398286591346 119.6279446939455,505.13639678699474 131.46603925018434,527.6562447356524 146.93972636986038,547.8515174814087 165.60385624741178,565.1412337968086 186.92149584795712,579.0280000227654 210.2793754931174,589.1123191785299 235.00553151308583,595.1040837624644 260.38863741796683,596.8309216166675 285.6984674657815,594.2431547601196 310.2069039275459,587.4152285337482 333.20888370865293,576.543569943512 354.04268173039935,561.9409368130733 372.10894755570007,544.0274203106475 386.8879476099286,523.3183596909519 397.9545169695824,500.4095169231235 404.99029058303637,475.9599377035676 407.79286205343226,450.6729919111941 406.28160650219576,425.2761389366233 400.4999999999999,400.4999999999996" stroke="#bf00ff" stroke-linecap="round" stroke-width="2" /><polyline clip-path="url(#border_clip)" fill="none" points="400.4999999999999,400.4999999999996 388.2180980851589,378.21909068939607 372.34736819755295,358.3343234745715 353.34438234028323,341.41774690419174 331.7558218178142,327.95602008625326 308.20275021018404,318.33641239160386 283.3627465045747,312.8356624192429 257.9504123815158,311.612016730685 232.6968144256073,314.7006773845038 208.32845267093074,322.0127892371993 185.54636051780358,333.3379961438979 165.0059372782205,348.3504925216463 147.29809353092986,366.6183961828399 132.93225169995128,387.61617279943476 122.32169089893961,410.73975456872705 115.7716576435405,435.3239181442136 113.47058446489626,460.6614219001016 115.48466904880314,486.02335198521104 121.75596984881668,510.6800918473433 132.10407295904912,533.9223119730781 146.231282293763,555.0813760064016 163.7311837617439,573.5485761992861 184.10033705974837,588.792644825329 206.7527587334169,600.375037784965 231.03677985435834,607.9625507207551 256.25379334872923,611.3369047000866 281.6783516507973,610.4010257026451 306.57903650858896,605.1818372632363 330.23950055530827,595.8294859307096 351.9790753188296,582.6130218251184 371.1723528143505,565.9126585556251 387.26717739343735,546.208835167218 399.80053025672305,524.0683947841209 408.411849661749,500.12827756515685 412.85340362782244,475.077197095054 412.99741673405634,449.63582734854964 408.83974598558837,424.53607021226554 400.49999999999983,400.4999999999997" stroke="#ffff00" stroke-linecap="round" stroke-width="2" /><polyline clip-path="url(#border_clip)" fill="none" points="400.49999999999983,400.4999999999997 385.95639041848165,379.62495617505203 368.09407789038124,361.50806280169525 347.4269286253015,346.670509916936 324.54949887901483,335.53914690260433 300.11993065249044,328.43420280580096 274.8410181448025,325.5600739322517 249.439989643597,326.9994437367354 224.6475864913175,332.7109041706309 201.17704098724028,342.530146916085 179.703557992803,356.17469023716126 160.84489051708357,373.2520054650697 145.14356808746896,393.2708093332931 133.05128916293341,415.65519730268693 124.915926591779,439.7612112865245 120.9715199431605,464.89536515219993 121.33154261479552,490.33459505463645 125.98563740991278,515.3470606666303 134.79991449494582,539.213198892606 147.52080316627212,561.2464243887705 163.78234661768133,580.812881373392 183.11672985139404,597.3496785035813 204.96773786379927,610.3810822343739 228.70675693841028,619.5322028066519 253.65085871797373,624.5397791429539 279.0824468099034,625.2597523893559 304.2699007279703,621.6714102264109 328.4886232816336,613.8779827248688 351.04188591794156,602.1036726044912 371.28087233346946,586.6872053300087 388.6233437380725,568.0720845962171 402.57038880479837,546.7938335341623 412.72077644039837,523.4645886856858 418.7824984733606,498.75548994962884 420.58117019734624,473.37737310888497 418.0650471016896,448.06032037914144 411.3065134667589,423.532657272791 400.49999999999983,400.49999999999966" stroke="#ff007f" stroke-linecap="round" stroke-width="2" /><polyline clip-path="url(#border_clip)" fill="none" points="400.49999999999983,400.49999999999966 383.8540255818255,381.25953300923777 364.1958336472177,365.10900595235097 342.09095458655514,352.51304008757523 318.17530552416116,343.83399841942287 293.13689614044813,339.32156117479525 267.6960358860682,339.10554295744646 242.58461199048236,343.1921582181863 218.5250343989121,351.4638424764449 196.2094533535043,363.6826344363298 176.27984749105917,379.4970216998537 159.30955528649724,398.4520531386273 145.7867811488105,420.00242700949605 136.10055066908728,443.528178292862 130.5295190625538,468.35251395753016 129.23395476537831,493.7612830639823 132.25112880356255,519.0235215866553 139.49424257338296,543.4124809180935 150.75492487918578,566.2265351031982 165.70922639330578,586.8093653405076 183.92693908840994,604.5688410791593 204.8839725391661,618.994054536748 227.9774310495708,629.6700185860191 252.54295786443376,636.2896051789539 277.87384750363344,638.6623808615245 303.24137639208476,636.7200851974453 327.91576691021055,630.5185944966431 351.18718176735405,620.2363143555541 372.38614472823366,606.1690472529372 390.90280022531954,588.7214828511259 406.2044577931503,568.3955558112598 417.8509166031573,545.7760060469536 425.5071292400309,521.5135568216159 428.9528404058393,496.3061946249295 428.08892326393294,470.8790893723642 422.94023113755435,445.9637325870224 413.6548825249793,422.2768937203424 400.49999999999994,400.4999999999996" stroke="#00ffff" stroke-linecap="round" stroke-width="2" /><polyline clip-path="url(#border_clip)" fill="none" points="400.49999999999994,400.4999999999996 381.934037524289,383.10491242610084 360.6953454477505,369.0977002398343 337.3949222722371,358.8813254329318 312.7030787495347,352.7496945076813 287.33015426146494,350.8792033219697 262.0060816491824,353.3236625016154 237.45938837431947,360.0127494066355 214.396238110342,370.7540311855625 193.48011569937265,385.2385007182191 175.31273990128676,403.04946618795816 160.41675304053746,423.6745385465584 149.22068553805346,446.52037201423764 142.04662787125244,470.9297335574351 139.10096461743439,496.2004102865656 140.46843714525602,521.6054108423374 146.10970575984288,546.413879613529 155.86248143418524,569.9121221222587 169.4461945689662,591.4241367146926 186.4700664691024,610.331061897833 206.44435133531243,626.0889798579127 228.79442535908439,638.2445639855895 252.87731760343166,646.4481202571262 278.00020710609596,650.4636472947682 303.4403540772154,650.175625696694 328.46589180718973,645.5923413198808 352.35688113940967,636.8456469110845 374.42602180900184,624.1871689433799 394.0384248200855,607.9810687806649 410.6298770462439,588.6935664182487 423.72307261491164,566.8795281824306 432.9413441282992,543.1665042365357 438.0194986986312,518.2366751052937 438.8114470646919,492.8072265831844 435.29440631388644,467.6097176049086 427.5695553051556,443.3690346267823 415.8591239374197,420.78253796318575 400.49999999999983,400.49999999999955" stroke="#7fff00" stroke-linecap="round" stroke-width="2" /><polyline clip-path="url(#border_clip)" fill="none" points="400.49999999999983,400.49999999999955 380.2174620368137,385.14087606257965 357.63096537321707,373.4304446948437 333.39028239509076,365.7055936861128 308.19277341681504,362.18855293530737 282.76332489470576,362.980501301368 257.8334957634636,368.0586558717 234.12047181756878,377.27692738508756 212.3064335817507,390.37012295375524 193.01893121933438,406.96157517991367 176.8128310566194,426.57397819099725 164.15435308891472,448.6431188605895 155.40765868011846,472.53410819280936 150.8243743033052,497.5596459227838 150.53635270523105,522.9997928939032 154.55187974287298,548.1226823965675 162.7554360144097,572.2055746409147 174.9110201420864,594.5556486646867 190.66893810216612,614.5299335308969 209.5758632853064,631.5538054310331 231.08787787774037,645.137518565814 254.58612038647,654.8902942401564 279.3945891576616,660.5315628547434 304.7995897134334,661.899035382565 330.07026644256393,658.953372128747 354.4796279857614,651.779314461946 377.3254614534407,640.583246959462 397.950533812041,625.6872600987128 415.76149928178006,607.5198843006269 430.2459688144367,586.6037618896576 440.9872505933637,563.5406116256802 447.6763374983838,538.9939183508172 450.12079667802954,513.6698457385346 448.25030549231803,488.2969212504649 442.1186745670675,463.6050777277624 431.9022997601651,440.304654552249 417.89508757389854,419.06596247571053 400.49999999999983,400.4999999999996" stroke="#bf00ff" stroke-linecap="round" stroke-width="2" /><polyline clip-path="url(#border_clip)" fill="none" points="400.49999999999983,400.4999999999996 378.72310627965703,387.3451174750202 355.036267412977,378.0597688624451 330.12091062763517,372.91107673606643 304.6938053750699,372.04715959416 279.48644317838347,375.49287075996847 255.22399395304575,383.14908339684195 232.6044441887396,394.79554220684895 212.27851714887348,410.0971997746797 194.83095274706216,428.61385527176554 180.76368564444522,449.8128182326451 170.4814055033562,473.08423308978865 164.2799148025539,497.7586236079144 162.33761913847468,523.1261524963656 164.71039482104533,548.4570421355654 171.32998141398008,573.0225689504284 182.00594546325118,596.116027460833 196.4311589208399,617.0730609115893 214.19063465949142,635.2907736066935 234.77346489680087,650.2450751208135 257.5875190819055,661.5057574266164 281.9764784133438,668.7488711964368 307.2387169360167,671.7660452346211 332.64748604246887,670.4704809374456 357.4718217071371,664.8994493309121 380.99757299050304,655.2132188511889 402.5479468613718,641.6904447135023 421.50297830014546,624.7201525089404 437.31736556366934,604.7905466464953 449.5361575235543,582.4749656010874 457.80784178181295,558.4153880095172 461.8944570425528,533.3039641139313 461.67843882520407,507.8631038595515 457.16600158057645,482.82469447583844 448.48695991242414,458.9090454134444 435.89099404764846,436.80416635278186 419.74046699076166,417.14597441817403 400.4999999999998,400.4999999999996" stroke="#ffff00" stroke-linecap="round" stroke-width="2" /><polyline clip-path="url(#border_clip)" fill="none" points="400.4999999999998,400.4999999999996 377.46734272720846,389.69348653324056 352.93967962085804,382.9349528983098 327.62262689111446,380.41882980265314 302.24451005037065,382.2175015266387 277.5354113143136,388.2792235596009 254.20616646583701,398.4296111952009 232.92791540378232,412.37665626192666 214.31279466999064,429.7191276665297 198.89632739550817,449.9581140820576 187.12201727513045,472.5113767183655 179.32858977358828,496.7300992720288 175.74024761064328,521.9175531900958 176.46022085704527,547.3491412820254 181.46779719334725,572.2932430615888 190.61891776562507,596.0322621361998 203.6503214964176,617.8832701486051 220.187118626607,637.2176533823178 239.75357561122846,653.4791968337271 261.786801107393,666.2000855050535 285.6529393333685,675.0143625900865 310.6654049453624,679.6684573852039 336.10463484779893,680.0284800568389 361.2387887134743,676.0840734082205 385.3448026973119,667.9487108370661 407.7291906667058,655.8564319125306 427.7479945349292,640.155109482916 444.82530976283766,621.2964420071967 458.4698530839139,599.8229590127594 468.2890958293681,576.3524135086823 474.00055626326366,551.5600103564027 475.43992606774736,526.1589818551972 472.5657971941982,500.88006934750933 465.4608530973948,476.4505011209849 454.3294900830632,453.5730713746982 439.4919371983041,432.9059221096185 421.3750438249473,415.043609581518 400.49999999999966,400.49999999999983" stroke="#ff007f" stroke-linecap="round" stroke-width="2" /><polyline clip-path="url(#border_clip)" fill="none" points="400.49999999999966,400.49999999999983 376.46392978773383,392.1602540144113 351.36417265144973,388.00258326594326 325.92280290494546,388.1465963721771 300.8717224348426,392.5881503382505 276.93160521587856,401.19946974327644 254.7911648327814,413.7328226065621 235.08734144437435,429.82764718564886 218.386978174881,449.02092468116973 205.1705140692898,470.76049944469105 195.81816273676299,494.4209634914103 190.59897429735415,519.321648349202 189.66309529991258,544.7462066512701 193.0374492792441,569.9632201456409 200.62496221503417,594.2472412665824 212.2073551746701,616.8996629402509 227.451423800713,637.2688162382553 245.91862399359746,654.7687177062362 267.07768802692095,668.8959270409501 290.31990815265567,679.2440301511826 314.9766480147879,685.5153309511962 340.3385780998974,687.5294155351032 365.67608185578536,685.228342356459 390.26024543127187,678.67830910106 413.38382720056416,668.0677483000483 434.381603817159,653.7019064690696 452.6495074783527,635.9940627217791 467.662003856101,615.453639482196 478.9872107627997,592.6715473290689 486.29932261549516,568.3031855743924 489.387983269314,543.0495876184839 488.1643375807561,517.6372534954249 482.6635876083952,492.7972497898157 473.04397991374583,469.2441781821855 459.5822530958074,447.6556176597165 442.66567652542767,428.65263180244676 422.78090931060314,412.7819019148408 400.4999999999996,400.49999999999983" stroke="#00ffff" stroke-linecap="round" stroke-width="2" /><polyline clip-path="url(#border_clip)" fill="none" points="400.4999999999996,400.49999999999983 375.723861063376,394.7183934978039 350.32700808880514,393.20713794656734 325.04006229643164,396.0097094169632 300.5904830768758,403.04548303041713 277.6816403090474,414.1120523900709 256.97257968935185,428.8910524442994 239.05906318692595,446.9573182696001 224.4564300564872,467.7911162913465 213.58477146625103,490.79309607245347 206.7568452398796,515.3015325342178 204.16907838333162,540.6113625820326 205.89591623753472,565.9944684869135 211.88768082146925,590.7206245068819 221.97199997723374,614.0785041520422 235.8587662031905,635.3961437525876 253.14848251859036,654.0602736301389 273.34375526434656,669.533960749815 295.8636032130042,681.3720553060539 320.0601713408644,689.2339968720371 345.2373684374692,692.8936117031121 370.6708923823567,692.245619343633 395.6290669983331,687.3086613539854 419.3938910429307,678.2247650268346 441.28169379689274,665.2552575205041 460.6628030260099,648.7732479524283 476.97965950485724,629.2528937291615 489.7628569805641,607.2557599010876 498.64464613606344,583.4146639583595 503.3695140683844,558.4154708238755 503.8015349296594,532.9773617681981 499.9282802662881,507.83214487381065 491.86117656291856,483.70320224898364 479.8322997053581,461.28467964157807 464.18769857987763,441.22151712970754 445.37743987680375,424.09089536993054 423.942660491272,410.38563116063136 400.49999999999966,400.49999999999983" stroke="#7fff00" stroke-linecap="round" stroke-width="2" /><polyline clip-path="url(#border_clip)" fill="none" points="400.49999999999966,400.49999999999983 375.25524490194823,397.33987747191355 349.8395493249132,398.4915947499784 324.9840765564054,403.92201902503075 301.4038732937294,413.474926877826 279.7772990523845,426.87549854237477 260.7265109978894,443.7382239702473 244.7995656168896,463.57799325277074 232.45465212987992,485.8240523498638 224.04691122155424,509.83642264460104 219.81821828990974,534.9243119628153 219.890225131428,560.3659874062268 224.26086024038105,585.4295382938703 232.80438840227964,609.3939318998007 245.2750278670685,631.5697562518369 261.31402104258177,651.3190532587927 280.4599552972814,668.0736716032322 302.16203696157424,681.3516114204431 325.79593665885943,690.7708905569682 350.68175012497875,696.0605335016882 376.10355781599856,697.0683668579119 401.33002061001696,693.7653970949384 425.63541910215525,686.2466446391468 448.3205312305222,674.7284103093318 468.73274762186446,659.5420527359659 486.2848459750319,641.1244557767029 500.47188437742886,620.0054601632268 510.88572756449435,596.7926209480786 517.2267882281728,572.1537292519681 519.3126455983106,546.7976011290754 517.0832933560795,521.4536862197097 510.6028659065173,496.8510828122636 500.0577933484633,473.6975630129224 485.75143822004736,452.6592114308055 468.0953683107989,434.3412631365002 447.5975166056814,419.27069215102915 424.8475689779064,407.8810513627248 400.49999999999966,400.4999999999999" stroke="#bf00ff" stroke-linecap="round" stroke-width="2" /><polyline clip-path="url(#border_clip)" fill="none" points="400.49999999999966,400.4999999999999 375.0632155601793,399.99598440973915 349.9071370599983,403.79805606159454 325.75545907635,411.79683627655663 303.30298141197454,423.76221471118345 283.19562097015285,439.34996921322045 266.01182990141706,458.11166846619716 252.24595458836512,479.50757254194536 242.29401420028745,502.92216023563026 236.44230794269674,527.681836490137 234.85917875044916,553.0743104994525 237.59017036800958,578.3690870182899 244.5567171388447,602.8384813802858 255.55840419631738,625.7785536609598 270.27873303450536,646.5293597476814 288.2942265939692,664.4939367302331 309.0866119257297,679.15547643685 332.05772996039275,690.0921930643708 356.54674345551047,696.9894571878515 381.8491480798629,699.6488470762768 407.23703972037964,697.9938569244956 431.9800549581809,692.0720977859419 455.36638229436966,682.0539278893118 476.72323967086265,668.2275517424957 495.4362291852707,650.9907290136176 510.9670121999183,630.8393317095833 522.8687963642997,608.353078841273 530.7991890175294,584.1788589630905 534.5300472018037,559.0121203670399 533.9540409199171,533.5768643015638 529.0877408238679,508.6048167738119 520.0711415073688,484.814378124665 507.16363411627464,462.8899559589166 490.73654413758754,443.46227598458023 471.262449041267,427.09023718262966 449.3015830868384,414.24483330090106 425.48572040376257,405.29560322150377 400.4999999999997,400.4999999999998" stroke="#ffff00" stroke-linecap="round" stroke-width="2" /><polyline clip-path="url(#border_clip)" fill="none" points="400.4999999999997,400.4999999999998 375.1498769517225,402.65761344784346 350.5290307886914,409.06838318083703 327.34575842795493,419.54788302582136 306.2670004056539,433.79463685223357 287.89915421209173,451.39879149148715 272.7706293400037,471.85390746641446 261.31664590552407,494.57152833295277 253.86671415784755,518.89810950064 250.63515506929826,544.1338195205765 251.71493471116892,569.5526729620304 257.07498978911275,594.4234156914811 266.561121277565,618.0305617226493 279.9004304449591,639.6949764456413 296.7091696533682,658.7934140931768 316.5037820793607,674.7764473865743 338.7148127634009,687.1842735582184 362.7032907922309,695.6599420400228 387.77911132867314,699.9596232813769 413.2208886713258,699.9596232813769 438.296709207768,695.6599420400229 462.285187236598,687.1842735582185 484.4962179206383,674.7764473865745 504.2908303466308,658.793414093177 521.0995695550398,639.6949764456415 534.438878722434,618.0305617226496 543.9250102108863,594.4234156914813 549.2850652888302,569.5526729620308 550.3648449307009,544.1338195205768 547.1332858421517,518.8981095006403 539.6833540944752,494.5715283329531 528.2293706599957,471.85390746641474 513.1008457879077,451.39879149148743 494.73299959434553,433.7946368522338 473.6542415720445,419.54788302582153 450.4709692113081,409.0683831808372 425.850123048277,402.6576134478436 400.4999999999998,400.49999999999983" stroke="#ff007f" stroke-linecap="round" stroke-width="2" /><polyline clip-path="url(#border_clip)" fill="none" points="400.4999999999998,400.49999999999983 375.51427959623686,405.29560322150377 351.69841691316105,414.24483330090106 329.7375509587324,427.0902371826296 310.2634558624118,443.4622759845801 293.8363658837247,462.88995595891646 280.92885849263047,484.8143781246649 271.91225917613133,508.60481677381176 267.045959080082,533.5768643015637 266.4699527981955,559.0121203670398 270.20081098246965,584.1788589630904 278.1312036356993,608.3530788412729 290.03298780008066,630.8393317095832 305.5637708147283,650.9907290136176 324.27676032913627,668.2275517424957 345.63361770562926,682.0539278893119 369.019945041818,692.0720977859419 393.7629602796193,697.9938569244957 419.150851920136,699.6488470762769 444.45325654448845,696.9894571878516 468.9422700396062,690.0921930643709 491.9133880742693,679.1554764368502 512.7057734060298,664.4939367302334 530.7212669654937,646.5293597476816 545.4415958036817,625.77855366096 556.4432828611544,602.838481380286 563.4098296319896,578.3690870182901 566.1408212495501,553.0743104994527 564.5576920573025,527.6818364901372 558.7059857997118,502.92216023563043 548.7540454116341,479.50757254194554 534.9881700985823,458.11166846619733 517.8043790298465,439.3499692132205 497.6970185880248,423.7622147111835 475.2445409236493,411.79683627655663 451.09286294000105,403.79805606159454 425.93678443982003,399.9959844097391 400.4999999999997,400.4999999999998" stroke="#00ffff" stroke-linecap="round" stroke-width="2" /><polyline clip-path="url(#border_clip)" fill="none" points="400.4999999999997,400.4999999999998 376.1524310220929,407.88105136272463 353.4024833943179,419.270692151029 332.90463168920036,434.3412631365 315.2485617799519,452.65921143080527 300.94220665153597,473.69756301292216 290.3971340934819,496.85108281226337 283.91670664391967,521.4536862197093 281.6873544016886,546.797601129075 283.77321177182625,572.1537292519679 290.11427243550474,596.7926209480783 300.5281156225701,620.0054601632265 314.7151540249671,641.1244557767027 332.26725237813446,659.5420527359656 352.67946876947667,674.7284103093316 375.36458089784367,686.2466446391467 399.6699793899819,693.7653970949384 424.8964421840003,697.0683668579118 450.3182498750201,696.0605335016882 475.2040633411395,690.7708905569683 498.8379630384246,681.3516114204433 520.5400447027175,668.0736716032325 539.6859789574171,651.3190532587928 555.7249721329305,631.5697562518371 568.1956115977193,609.3939318998009 576.739139759618,585.4295382938706 581.1097748685711,560.3659874062271 581.1817817100894,534.9243119628156 576.9530887784449,509.8364226446013 568.5453478701193,485.8240523498641 556.2004343831096,463.57799325277097 540.2734890021098,443.73822397024753 521.2227009476148,426.87549854237494 499.5961267062699,413.4749268778262 476.0159234435939,403.9220190250309 451.16045067508617,398.4915947499785 425.74475509805114,397.3398774719136 400.4999999999997,400.49999999999983" stroke="#7fff00" stroke-linecap="round" stroke-width="2" /><polyline clip-path="url(#border_clip)" fill="none" points="400.4999999999997,400.49999999999983 377.05733950872735,410.38563116063136 355.6225601231956,424.0908953699305 336.8123014201217,441.2215171297074 321.16770029464124,461.2846796415779 309.1388234370807,483.70320224898353 301.0717197337111,507.8321448738105 297.1984650703398,532.9773617681979 297.63048593161477,558.4154708238752 302.3553538639357,583.4146639583593 311.237143019435,607.2557599010873 324.0203404951418,629.2528937291613 340.3371969739891,648.7732479524282 359.71830620310624,665.2552575205038 381.6061089570683,678.2247650268343 405.3709330016659,687.3086613539854 430.3291076176422,692.245619343633 455.76263156252975,692.8936117031121 480.93982865913455,689.2339968720371 505.13639678699474,681.3720553060539 527.6562447356523,669.5339607498152 547.8515174814086,654.0602736301391 565.1412337968085,635.3961437525877 579.0280000227652,614.0785041520423 589.1123191785297,590.7206245068821 595.1040837624643,565.9944684869138 596.8309216166674,540.6113625820328 594.2431547601194,515.3015325342182 587.4152285337481,490.79309607245375 576.5435699435119,467.7911162913468 561.9409368130732,446.95731826960036 544.0274203106474,428.8910524442997 523.3183596909518,414.1120523900712 500.4095169231234,403.04548303041736 475.95993770356756,396.0097094169634 450.6729919111941,393.2071379465675 425.2761389366233,394.718393497804 400.49999999999966,400.49999999999983" stroke="#bf00ff" stroke-linecap="round" stroke-width="2" /><polyline clip-path="url(#border_clip)" fill="none" points="400.49999999999966,400.49999999999983 378.2190906893962,412.7819019148408 358.3343234745716,428.6526318024467 341.41774690419186,447.65561765971637 327.9560200862534,469.2441781821854 318.336412391604,492.7972497898155 312.835662419243,517.6372534954248 311.61201673068507,543.0495876184837 314.7006773845039,568.303185574392 322.0127892371993,592.6715473290686 333.3379961438979,615.4536394821957 348.35049252164623,635.9940627217788 366.6183961828399,653.7019064690694 387.6161727994347,668.067748300048 410.73975456872694,678.6783091010598 435.3239181442134,685.2283423564588 460.66142190010135,687.529415535103 486.02335198521075,685.5153309511961 510.68009184734296,679.2440301511826 533.9223119730777,668.8959270409503 555.0813760064011,654.7687177062363 573.5485761992857,637.2688162382556 588.7926448253286,616.8996629402511 600.3750377849645,594.2472412665826 607.9625507207546,569.9632201456412 611.3369047000862,544.7462066512704 610.4010257026447,519.3216483492023 605.1818372632359,494.4209634914107 595.8294859307091,470.76049944469145 582.613021825118,449.0209246811702 565.9126585556247,429.82764718564925 546.2088351672178,413.7328226065624 524.0683947841205,401.1994697432768 500.1282775651566,392.5881503382508 475.0771970950538,388.1465963721773 449.6358273485495,388.00258326594343 424.53607021226543,392.1602540144114 400.4999999999996,400.4999999999999" stroke="#ffff00" stroke-linecap="round" stroke-width="2" /><polyline clip-path="url(#border_clip)" fill="none" points="400.4999999999996,400.4999999999999 379.624956175052,415.04360958151807 361.5080628016952,432.9059221096184 346.670509916936,453.57307137469815 335.53914690260433,476.45050112098477 328.43420280580096,500.88006934750916 325.56007393225167,526.1589818551971 326.9994437367353,551.5600103564025 332.71090417063084,576.352413508682 342.5301469160849,599.8229590127592 356.17469023716114,621.2964420071964 373.25200546506954,640.1551094829158 393.27080933329285,655.8564319125305 415.6551973026867,667.9487108370661 439.76121128652426,676.0840734082204 464.89536515219964,680.0284800568389 490.3345950546361,679.668457385204 515.34706066663,675.0143625900866 539.2131988926055,666.2000855050537 561.24642438877,653.4791968337274 580.8128813733915,637.2176533823182 597.3496785035809,617.8832701486056 610.3810822343735,596.0322621362004 619.5322028066514,572.2932430615895 624.5397791429534,547.349141282026 625.2597523893554,521.9175531900963 621.6714102264104,496.7300992720295 613.8779827248684,472.51137671836625 602.1036726044908,449.9581140820583 586.6872053300084,429.71912766653037 568.0720845962168,412.37665626192734 546.7938335341621,398.4296111952015 523.4645886856856,388.2792235596015 498.75548994962867,382.21750152663924 473.37737310888485,380.4188298026536 448.06032037914133,382.93495289831026 423.53265727279097,389.6934865332409 400.49999999999966,400.4999999999999" stroke="#ff007f" stroke-linecap="round" stroke-width="2" /><polyline clip-path="url(#border_clip)" fill="none" points="400.49999999999966,400.4999999999999 381.25953300923777,417.1459744181742 365.10900595235097,436.8041663527819 352.51304008757523,458.9090454134444 343.83399841942287,482.8246944758384 339.3215611747952,507.8631038595514 339.1055429574464,533.3039641139312 343.1921582181862,558.4153880095171 351.46384247644477,582.4749656010872 363.68263443632964,604.790546646495 379.49702169985346,624.7201525089401 398.45205313862704,641.6904447135021 420.0024270094957,655.2132188511888 443.52817829286164,664.899449330912 468.35251395752977,670.4704809374455 493.76128306398186,671.7660452346211 519.0235215866547,668.7488711964368 543.412480918093,661.5057574266165 566.2265351031976,650.2450751208137 586.8093653405072,635.2907736066937 604.5688410791587,617.0730609115897 618.9940545367474,596.1160274608335 629.6700185860185,573.0225689504289 636.2896051789534,548.457042135566 638.6623808615241,523.1261524963663 636.7200851974449,497.75862360791507 630.5185944966427,473.08423308978934 620.2363143555538,449.81281823264584 606.1690472529369,428.6138552717663 588.7214828511256,410.0971997746804 568.3955558112597,394.79554220684963 545.7760060469535,383.14908339684257 521.5135568216159,375.49287075996904 496.3061946249295,372.0471595941605 470.87908937236426,372.9110767360669 445.9637325870225,378.0597688624455 422.27689372034246,387.34511747502046 400.4999999999997,400.4999999999998" stroke="#00ffff" stroke-linecap="round" stroke-width="2" /><polyline clip-path="url(#border_clip)" fill="none" points="400.4999999999997,400.4999999999998 383.10491242610095,419.0659624757106 369.0977002398344,440.3046545522491 358.88132543293193,463.60507772776236 352.74969450768134,488.29692125046483 350.8792033219698,513.6698457385345 353.32366250161544,538.993918350817 360.01274940663546,563.5406116256798 370.75403118556244,586.6037618896573 385.238500718219,607.5198843006267 403.049466187958,625.6872600987125 423.6745385465582,640.5832469594618 446.5203720142374,651.7793144619458 470.9297335574348,658.9533721287469 496.2004102865653,661.899035382565 521.605410842337,660.5315628547432 546.4138796135287,654.8902942401564 569.9121221222583,645.1375185658142 591.4241367146922,631.5538054310332 610.3310618978326,614.5299335308971 626.0889798579122,594.555648664687 638.244563985589,572.2055746409151 646.4481202571258,548.1226823965678 650.4636472947677,522.9997928939036 650.1756256966936,497.5596459227843 645.5923413198805,472.5341081928099 636.8456469110843,448.64311886059005 624.1871689433797,426.5739781909979 607.9810687806647,406.96157517991423 588.6935664182485,390.3701229537558 566.8795281824305,377.2769273850881 543.1665042365357,368.05865587170047 518.2366751052936,362.9805013013685 492.80722658318433,362.1885529353078 467.6097176049086,365.7055936861132 443.3690346267823,373.430444694844 420.78253796318575,385.1408760625798 400.49999999999966,400.4999999999997" stroke="#7fff00" stroke-linecap="round" stroke-width="2" /><polyline clip-path="url(#border_clip)" fill="none" points="400.49999999999966,400.4999999999997 385.1408760625797,420.7825379631858 373.4304446948438,443.3690346267823 365.70559368611293,467.6097176049086 362.1885529353074,492.8072265831843 362.98050130136807,518.2366751052936 368.0586558717,543.1665042365356 377.2769273850875,566.8795281824305 390.37012295375513,588.6935664182485 406.9615751799135,607.9810687806648 426.5739781909971,624.1871689433798 448.6431188605892,636.8456469110845 472.5341081928091,645.5923413198807 497.55964592278343,650.1756256966939 522.9997928939028,650.4636472947682 548.122682396567,646.4481202571263 572.2055746409143,638.2445639855896 594.5556486646863,626.0889798579129 614.5299335308963,610.3310618978333 631.5538054310325,591.424136714693 645.1375185658135,569.9121221222591 654.890294240156,546.4138796135295 660.5315628547428,521.605410842338 661.8990353825645,496.2004102865662 658.9533721287465,470.92973355743567 651.7793144619457,446.52037201423826 640.5832469594617,423.674538546559 625.6872600987124,403.0494661879587 607.5198843006267,385.2385007182197 586.6037618896573,370.75403118556306 563.54061162568,360.01274940663603 538.993918350817,353.3236625016159 513.6698457385346,350.8792033219702 488.29692125046483,352.7496945076817 463.6050777277624,358.88132543293216 440.3046545522491,369.0977002398346 419.06596247571053,383.104912426101 400.49999999999966,400.4999999999997" stroke="#bf00ff" stroke-linecap="round" stroke-width="2" /><polyline clip-path="url(#border_clip)" fill="none" points="400.49999999999966,400.4999999999997 387.3451174750203,422.27689372034246 378.0597688624452,445.9637325870224 372.91107673606655,470.8790893723642 372.04715959416006,496.3061946249294 375.49287075996847,521.5135568216158 383.14908339684195,545.7760060469535 394.7955422068489,568.3955558112596 410.0971997746796,588.7214828511258 428.61385527176543,606.1690472529369 449.81281823264493,620.236314355554 473.08423308978837,630.5185944966429 497.7586236079141,636.7200851974453 523.1261524963654,638.6623808615245 548.457042135565,636.2896051789538 573.022568950428,629.6700185860191 596.1160274608326,618.9940545367481 617.0730609115888,604.5688410791594 635.2907736066929,586.8093653405078 650.245075120813,566.2265351031986 661.5057574266158,543.4124809180939 668.7488711964362,519.0235215866556 671.7660452346205,493.7612830639828 670.470480937445,468.3525139575307 664.8994493309117,443.5281782928625 655.2132188511885,420.0024270094966 641.6904447135018,398.45205313862783 624.7201525089399,379.4970216998542 604.7905466464949,363.6826344363303 582.4749656010871,351.46384247644534 558.415388009517,343.1921582181867 533.3039641139311,339.1055429574468 507.86310385955125,339.32156117479553 482.8246944758382,343.8339984194231 458.90904541344423,352.5130400875754 436.8041663527817,365.109005952351 417.14597441817386,381.25953300923777 400.4999999999995,400.4999999999996" stroke="#ffff00" stroke-linecap="round" stroke-width="2" /><polyline clip-path="url(#border_clip)" fill="none" points="400.4999999999995,400.4999999999996 389.69348653324045,423.5326572727909 382.9349528983097,448.0603203791413 380.4188298026529,473.37737310888474 382.2175015266385,498.7554899496286 388.2792235596006,523.4645886856856 398.42961119520055,546.7938335341621 412.3766562619263,568.0720845962168 429.7191276665293,586.6872053300085 449.95811408205714,602.103672604491 472.511376718365,613.8779827248686 496.73009927202827,621.6714102264108 521.9175531900951,625.2597523893558 547.3491412820247,624.5397791429539 572.2932430615881,619.5322028066519 596.0322621361992,610.3810822343742 617.8832701486044,597.3496785035816 637.217653382317,580.8128813733923 653.4791968337263,561.246424388771 666.2000855050526,539.2131988926064 675.0143625900857,515.3470606666309 679.668457385203,490.33459505463713 680.0284800568381,464.8953651522006 676.0840734082196,439.7612112865252 667.9487108370654,415.65519730268767 655.85643191253,393.27080933329376 640.1551094829153,373.2520054650704 621.296442007196,356.17469023716194 599.8229590127588,342.53014691608564 576.3524135086817,332.7109041706315 551.5600103564022,326.9994437367359 526.1589818551969,325.5600739322522 500.8800693475089,328.4342028058013 476.45050112098454,335.5391469026046 453.57307137469786,346.67050991693617 432.90592210961813,361.5080628016953 415.04360958151767,379.62495617505203 400.49999999999943,400.4999999999996" stroke="#ff007f" stroke-linecap="round" stroke-width="2" /><polyline clip-path="url(#border_clip)" fill="none" points="400.49999999999943,400.4999999999996 392.16025401441084,424.5360702122654 388.0025832659428,449.6358273485494 388.14659637217665,475.0771970950537 392.58815033825,500.12827756515657 401.19946974327587,524.0683947841205 413.73282260656146,546.2088351672178 429.8276471856482,565.9126585556248 449.02092468116905,582.6130218251182 470.76049944469025,595.8294859307093 494.4209634914095,605.1818372632362 519.321648349201,610.401025702645 544.7462066512692,611.3369047000867 569.96322014564,607.9625507207552 594.2472412665815,600.3750377849651 616.89966294025,588.7926448253293 637.2688162382544,573.5485761992865 654.7687177062354,555.081376006402 668.8959270409493,533.9223119730786 679.2440301511817,510.6800918473439 685.5153309511954,486.0233519852117 687.5294155351024,460.66142190010225 685.2283423564584,435.32391814421436 678.6783091010593,410.73975456872785 668.0677483000477,387.61617279943556 653.7019064690692,366.6183961828407 635.9940627217786,348.350492521647 615.4536394821956,333.33799614389864 592.6715473290685,322.0127892371999 568.303185574392,314.7006773845044 543.0495876184837,311.6120167306855 517.6372534954247,312.83566241924336 492.79724978981545,318.3364123916042 469.2441781821853,327.95602008625355 447.6556176597162,341.4177469041919 428.65263180244654,358.33432347457153 412.7819019148405,378.21909068939607 400.4999999999995,400.49999999999955" stroke="#00ffff" stroke-linecap="round" stroke-width="2" /><polyline clip-path="url(#border_clip)" fill="none" points="400.4999999999995,400.49999999999955 394.71839349780356,425.2761389366231 393.207137946567,450.67299191119395 396.0097094169628,475.95993770356745 403.0454830304167,500.40951692312325 414.1120523900704,523.3183596909516 428.8910524442988,544.0274203106472 446.95731826959945,561.9409368130731 467.79111629134576,576.5435699435119 490.7930960724527,587.4152285337482 515.301532534217,594.2431547601195 540.6113625820317,596.8309216166676 565.9944684869126,595.1040837624646 590.720624506881,589.1123191785301 614.0785041520413,579.0280000227657 635.3961437525867,565.1412337968089 654.0602736301381,547.8515174814091 669.5339607498142,527.656244735653 681.3720553060531,505.1363967869954 689.2339968720363,480.9398286591353 692.8936117031114,455.7626315625305 692.2456193436325,430.32910761764293 687.3086613539849,405.37093300166663 678.224765026834,381.606108957069 665.2552575205036,359.718306203107 648.7732479524279,340.33719697398976 629.2528937291612,324.0203404951424 607.2557599010873,311.2371430194355 583.4146639583593,302.35535386393616 558.4154708238752,297.63048593161517 532.9773617681979,297.19846507034003 507.83214487381053,301.07171973371135 483.70320224898353,309.13882343708076 461.2846796415779,321.16770029464124 441.22151712970737,336.8123014201216 424.09089536993037,355.62256012319546 410.38563116063114,377.0573395087271 400.49999999999955,400.49999999999943" stroke="#7fff00" stroke-linecap="round" stroke-width="2" /><polyline clip-path="url(#border_clip)" fill="none" points="400.49999999999955,400.49999999999943 397.33987747191327,425.7447550980508 398.49159474997805,451.1604506750858 403.92201902503035,476.01592344359364 413.47492687782557,499.5961267062696 426.8754985423742,521.2227009476146 443.73822397024674,540.2734890021096 463.5779932527701,556.2004343831095 485.82405234986317,568.5453478701193 509.83642264460036,576.9530887784449 534.9243119628146,581.1817817100895 560.365987406226,581.1097748685713 585.4295382938697,576.7391397596183 609.3939318998,568.1956115977198 631.5697562518362,555.7249721329309 651.3190532587919,539.6859789574177 668.0736716032316,520.5400447027182 681.3516114204424,498.8379630384253 690.7708905569675,475.2040633411402 696.0605335016874,450.3182498750209 697.0683668579112,424.89644218400116 693.7653970949378,399.66997938998276 686.2466446391462,375.36458089784446 674.7284103093313,352.6794687694775 659.5420527359654,332.26725237813525 641.1244557767025,314.71515402496783 620.0054601632264,300.5281156225708 596.7926209480783,290.1142724355053 572.1537292519679,283.77321177182677 546.7976011290751,281.687354401689 521.4536862197094,283.91670664392 496.8510828122635,290.3971340934821 473.6975630129222,300.9422066515361 452.6592114308053,315.24856177995196 434.3412631365,332.9046316892003 419.2706921510289,353.4024833943178 407.8810513627245,376.15243102209274 400.4999999999996,400.4999999999995" stroke="#bf00ff" stroke-linecap="round" stroke-width="2" /><polyline clip-path="url(#border_clip)" fill="none" points="400.4999999999996,400.4999999999995 399.9959844097388,425.93678443981975 403.79805606159414,451.0928629400007 411.7968362765562,475.244540923649 423.76221471118293,497.6970185880245 439.3499692132198,517.8043790298462 458.11166846619653,534.988170098582 479.5075725419447,548.754045411634 502.92216023562946,558.7059857997117 527.6818364901362,564.5576920573025 553.0743104994517,566.1408212495501 578.3690870182891,563.4098296319897 602.838481380285,556.4432828611547 625.778553660959,545.441595803682 646.5293597476806,530.7212669654941 664.4939367302323,512.7057734060304 679.1554764368493,491.91338807426996 690.09219306437,468.94227003960697 696.9894571878508,444.4532565444893 699.6488470762761,419.1508519201369 697.993856924495,393.7629602796202 692.0720977859412,369.01994504181897 682.0539278893114,345.63361770563023 668.2275517424953,324.27676032913723 650.9907290136173,305.5637708147292 630.8393317095829,290.0329878000815 608.3530788412727,278.13120363570016 584.1788589630903,270.2008109824704 559.0121203670398,266.4699527981961 533.5768643015638,267.0459590800826 508.6048167738118,271.9122591761318 484.814378124665,280.92885849263075 462.8899559589166,293.83636588372485 443.46227598458023,310.2634558624119 427.09023718262966,329.7375509587324 414.24483330090106,351.69841691316094 405.29560322150365,375.5142795962367 400.49999999999966,400.4999999999995" stroke="#ffff00" stroke-linecap="round" stroke-width="2" /><polyline clip-path="url(#border_clip)" fill="none" points="400.49999999999966,400.4999999999995 402.6576134478433,425.85012304827666 409.0683831808368,450.47096921130776 419.5478830258211,473.65424157204416 433.7946368522332,494.7329995943452 451.3987914914867,513.1008457879074 471.85390746641394,528.2293706599953 494.5715283329522,539.683354094475 518.8981095006393,547.1332858421516 544.1338195205758,550.3648449307009 569.5526729620296,549.2850652888303 594.4234156914802,543.9250102108865 618.0305617226485,534.4388787224343 639.6949764456403,521.0995695550403 658.7934140931759,504.29083034663137 674.7764473865734,484.49621792063897 687.1842735582175,462.28518723659874 695.6599420400219,438.29670920776886 699.959623281376,413.2208886713267 699.9596232813761,387.7791113286741 695.6599420400221,362.70329079223194 687.1842735582177,338.71481276340194 674.7764473865739,316.5037820793617 658.7934140931764,296.7091696533692 639.6949764456409,279.9004304449601 618.0305617226492,266.5611212775659 594.423415691481,257.0749897891136 569.5526729620304,251.71493471116963 544.1338195205766,250.63515506929886 518.8981095006401,253.86671415784804 494.57152833295294,261.3166459055244 471.8539074664146,272.770629340004 451.39879149148726,287.89915421209184 433.7946368522336,306.2670004056539 419.54788302582136,327.3457584279549 409.068383180837,350.5290307886912 402.6576134478433,375.14987695172226 400.4999999999995,400.4999999999994" stroke="#ff007f" stroke-linecap="round" stroke-width="2" /><polyline clip-path="url(#border_clip)" fill="none" points="400.4999999999995,400.4999999999994 405.29560322150337,425.48572040376223 414.24483330090055,449.301583086838 427.09023718262904,471.2624490412666 443.4622759845795,490.73654413758726 462.8899559589157,507.16363411627435 484.814378124664,520.0711415073686 508.6048167738108,529.0877408238678 533.5768643015626,533.9540409199171 559.0121203670387,534.5300472018037 584.1788589630894,530.7991890175296 608.3530788412718,522.8687963642999 630.839331709582,510.9670121999187 650.9907290136164,495.43622918527115 668.2275517424945,476.7232396708633 682.0539278893107,455.3663822943704 692.0720977859407,431.9800549581817 697.9938569244946,407.23703972038055 699.6488470762758,381.8491480798639 696.9894571878506,356.5467434555115 690.0921930643701,332.05772996039383 679.1554764368494,309.0866119257308 664.4939367302327,288.2942265939703 646.529359747681,270.27873303450644 625.7785536609596,255.5584041963184 602.8384813802857,244.55671713884564 578.3690870182897,237.59017036801043 553.0743104994525,234.85917875044993 527.681836490137,236.4423079426974 502.9221602356304,242.294014200288 479.5075725419455,252.24595458836555 458.1116684661973,266.01182990141734 439.3499692132205,283.19562097015296 423.7622147111835,303.3029814119746 411.79683627655663,325.75545907634995 403.7980560615944,349.90713705999815 399.9959844097389,375.06321556017906 400.4999999999996,400.4999999999993" stroke="#00ffff" stroke-linecap="round" stroke-width="2" /><polyline clip-path="url(#border_clip)" fill="none" points="400.4999999999996,400.4999999999993 407.88105136272435,424.847568977906 419.2706921510286,447.597516605681 434.3412631364995,468.0953683107985 452.6592114308047,485.751438220047 473.6975630129215,500.05779334846295 496.8510828122626,510.602865906517 521.4536862197085,517.0832933560794 546.7976011290741,519.3126455983105 572.1537292519668,517.2267882281728 596.7926209480772,510.88572756449446 620.0054601632254,500.4718843774292 641.1244557767016,486.28484597503234 659.5420527359645,468.73274762186503 674.7284103093305,448.32053123052293 686.2466446391455,425.63541910215605 693.7653970949373,401.33002061001787 697.0683668579109,376.1035578159996 696.0605335016872,350.6817501249798 690.7708905569675,325.79593665886057 681.3516114204426,302.16203696157544 668.0736716032318,280.4599552972826 651.3190532587923,261.31402104258297 631.5697562518368,245.2750278670696 609.3939318998007,232.80438840228067 585.4295382938705,224.260860240382 560.3659874062271,219.89022513142882 534.9243119628156,219.81821828991045 509.8364226446014,224.0469112215548 485.8240523498642,232.45465212988034 463.57799325277114,244.79956561688988 443.7382239702477,260.7265109978896 426.8754985423751,279.7772990523845 413.4749268778263,301.4038732937293 403.922019025031,324.98407655640517 398.4915947499785,349.83954932491287 397.33987747191355,375.25524490194783 400.49999999999966,400.49999999999915" stroke="#7fff00" stroke-linecap="round" stroke-width="2" /><polyline clip-path="url(#border_clip)" fill="none" points="400.49999999999966,400.49999999999915 410.3856311606311,423.9426604912715 424.0908953699301,445.3774398768032 441.2215171297069,464.1876985798771 461.2846796415773,479.8322997053576 483.70320224898285,491.86117656291816 507.83214487380974,499.92828026628774 532.9773617681969,503.80153492965917 558.4154708238742,503.36951406838426 583.4146639583582,498.64464613606344 607.2557599010863,489.76285698056427 629.2528937291602,476.9796595048575 648.773247952427,460.66280302601035 665.2552575205028,441.2816937968933 678.2247650268333,419.3938910429314 687.3086613539843,395.6290669983339 692.2456193436321,370.67089238235764 692.8936117031112,345.2373684374702 689.2339968720363,320.0601713408654 681.3720553060532,295.86360321300526 669.5339607498145,273.3437552643477 654.0602736301386,253.1484825185915 635.3961437525874,235.8587662031916 614.0785041520421,221.97199997723482 590.7206245068819,211.88768082147027 565.9944684869137,205.89591623753566 540.6113625820328,204.16907838333245 515.3015325342182,206.7568452398803 490.79309607245386,213.5847714662516 467.7911162913469,224.45643005648762 446.9573182696005,239.05906318692627 428.8910524442998,256.972579689352 414.11205239007126,277.68164030904745 403.0454830304174,300.5904830768757 396.0097094169634,325.0400622964315 393.20713794656746,350.32700808880486 394.71839349780385,375.72386106337564 400.49999999999966,400.4999999999992" stroke="#bf00ff" stroke-linecap="round" stroke-width="2" /><polyline clip-path="url(#border_clip)" fill="none" points="400.49999999999966,400.4999999999992 412.7819019148405,422.7809093106027 428.6526318024463,442.6656765254273 447.65561765971586,459.582253095807 469.2441781821848,473.0439799137455 492.7972497898148,482.6635876083949 517.6372534954239,488.16433758075596 543.0495876184827,489.38798326931396 568.3031855743911,486.29932261549527 592.6715473290676,478.9872107627999 615.4536394821947,467.6620038561014 635.9940627217778,452.64950747835314 653.7019064690685,434.38160381715966 668.067748300047,413.38382720056495 678.6783091010589,390.2602454312728 685.2283423564579,365.6760818557864 687.5294155351023,340.33857809989854 685.5153309511954,314.97664801478913 679.244030151182,290.319908152657 668.8959270409496,267.0776880269223 654.7687177062359,245.91862399359883 637.2688162382551,227.45142380071437 616.8996629402508,212.20735517467145 594.2472412665824,200.62496221503542 569.9632201456411,193.03744927924527 544.7462066512703,189.66309529991364 519.3216483492024,190.59897429735506 494.4209634914108,195.81816273676375 470.7604994446916,205.17051406929042 449.0209246811703,218.38697817488145 429.8276471856494,235.08734144437463 413.7328226065626,254.7911648327815 401.1994697432769,276.93160521587856 392.58815033825084,300.8717224348424 388.1465963721774,325.9228029049451 388.0025832659434,351.36417265144934 392.1602540144113,376.4639297877334 400.49999999999966,400.49999999999915" stroke="#ffff00" stroke-linecap="round" stroke-width="2" /><polyline clip-path="url(#border_clip)" fill="none" points="400.49999999999966,400.49999999999915 415.0436095815177,421.3750438249467 432.90592210961796,439.4919371983035 453.5730713746976,454.32949008306275 476.4505011209841,465.4608530973944 500.88006934750837,472.5657971941979 526.1589818551962,475.4399260677472 551.5600103564016,474.00055626326366 576.352413508681,468.2890958293682 599.8229590127581,458.4698530839142 621.2964420071953,444.8253097628381 640.1551094829148,427.74799453492983 655.8564319125294,407.7291906667066 667.9487108370649,385.34480269731284 676.0840734082194,361.2387887134754 680.028480056838,336.1046348478001 679.668457385203,310.6654049453637 675.014362590086,285.65293933336994 666.200085505053,261.7868011073944 653.4791968337269,239.75357561122993 637.2176533823178,220.18711862660848 617.8832701486052,203.65032149641905 596.0322621362002,190.61891776562646 572.2932430615892,181.46779719334853 547.349141282026,176.46022085704644 521.9175531900964,175.7402476106443 496.73009927202963,179.32858977358913 472.5113767183664,187.12201727513113 449.9581140820585,198.89632739550868 429.7191276665306,214.31279466999098 412.3766562619276,232.92791540378246 398.42961119520174,254.206166465837 388.2792235596017,277.5354113143134 382.21750152663935,302.24451005037025 380.41882980265365,327.622626891114 382.9349528983102,352.9396796208575 389.6934865332408,377.4673427272078 400.49999999999966,400.4999999999991" stroke="#ff007f" stroke-linecap="round" stroke-width="2" /><polyline clip-path="url(#border_clip)" fill="none" points="400.49999999999966,400.4999999999991 417.14597441817386,419.7404669907609 436.8041663527815,435.8909940476478 458.9090454134439,448.4869599124235 482.82469447583776,457.16600158057594 507.8631038595507,461.67843882520367 533.3039641139304,461.8944570425525 558.4153880095162,457.80784178181284 582.4749656010864,449.5361575235544 604.7905466464941,437.31736556366957 624.7201525089392,421.50297830014586 641.6904447135012,402.5479468613724 655.213218851188,380.9975729905038 664.8994493309112,357.471821707138 670.4704809374448,332.64748604246995 671.7660452346204,307.2387169360179 668.7488711964362,281.97647841334515 661.5057574266159,257.5875190819069 650.2450751208132,234.77346489680232 635.2907736066934,214.1906346594929 617.0730609115894,196.43115892084134 596.1160274608334,182.00594546325257 573.0225689504289,171.32998141398141 548.4570421355661,164.71039482104658 523.1261524963664,162.33761913847582 497.7586236079153,164.27991480255488 473.08423308978956,170.48140550335702 449.8128182326461,180.76368564444587 428.6138552717666,194.83095274706264 410.09719977468075,212.27851714887376 394.79554220685,232.6044441887397 383.1490833968429,255.2239939530457 375.49287075996926,279.4864431783833 372.04715959416075,304.6938053750696 372.91107673606706,330.1209106276347 378.05976886244554,355.0362674129765 387.34511747502046,378.72310627965646 400.49999999999966,400.4999999999992" stroke="#00ffff" stroke-linecap="round" stroke-width="2" /><polyline clip-path="url(#border_clip)" fill="none" points="400.49999999999966,400.4999999999992 419.0659624757104,417.89508757389797 440.30465455224873,431.9022997601645 463.605077727762,442.118674567067 488.2969212504643,448.25030549231764 513.6698457385339,450.12079667802925 538.9939183508163,447.6763374983837 563.5406116256793,440.98725059336374 586.6037618896567,430.2459688144369 607.519884300626,415.76149928178046 625.6872600987118,397.95053381204156 640.5832469594611,377.32546145344145 651.7793144619452,354.4796279857623 658.9533721287462,330.070266442565 661.8990353825644,304.7995897134346 660.5315628547429,279.39458915766295 654.8902942401562,254.5861203864714 645.1375185658139,231.08787787774185 631.5538054310331,209.57586328530795 614.5299335308971,190.66893810216766 594.5556486646872,174.9110201420879 572.2055746409153,162.75543601441112 548.1226823965683,154.55187974287432 522.9997928939041,150.53635270523228 497.5596459227848,150.82437430330629 472.5341081928105,155.40765868011937 448.6431188605907,164.15435308891546 426.5739781909985,176.81283105661993 406.9615751799149,193.01893121933475 390.37012295375644,212.3064335817509 377.2769273850887,234.12047181756878 368.05865587170103,257.8334957634634 362.980501301369,282.7633248947054 362.1885529353082,308.1927734168146 365.7055936861135,333.3902823950902 373.4304446948442,357.63096537321644 385.14087606257993,380.21746203681295 400.49999999999966,400.4999999999991" stroke="#7fff00" stroke-linecap="round" stroke-width="2" /><polyline clip-path="url(#border_clip)" fill="none" points="400.49999999999966,400.4999999999991 420.78253796318563,415.859123937419 443.369034626782,427.56955530515495 467.60971760490816,435.29440631388593 492.80722658318376,438.81144706469144 518.236675105293,438.0194986986309 543.1665042365349,432.9413441282991 566.8795281824297,423.7230726149117 588.6935664182477,410.6298770462442 607.981068780664,394.03842482008594 624.187168943379,374.42602180900246 636.8456469110837,352.35688113941046 645.59234131988,328.4658918071907 650.1756256966934,303.4403540772165 650.4636472947676,278.0002071060972 646.4481202571259,252.87731760343306 638.2445639855893,228.79442535908586 626.0889798579127,206.44435133531397 610.3310618978331,186.47006646910393 591.4241367146931,169.4461945689677 569.9121221222592,155.8624814341867 546.4138796135298,146.10970575984427 521.6054108423384,140.46843714525733 496.2004102865667,139.10096461743558 470.9297335574363,142.04662787125346 446.52037201423894,149.22068553805428 423.67453854655975,160.41675304053808 403.04946618795947,175.3127399012872 385.23850071822045,193.48011569937285 370.75403118556375,214.396238110342 360.0127494066367,237.4593883743193 353.3236625016165,262.0060816491821 350.8792033219707,287.3301542614645 352.7496945076821,312.70307874953403 358.8813254329325,337.39492227223644 369.09770023983475,360.69534544774973 383.10491242610107,381.9340375242882 400.49999999999966,400.4999999999991" stroke="#bf00ff" stroke-linecap="round" stroke-width="2" /><polyline clip-path="url(#border_clip)" fill="none" points="400.49999999999966,400.4999999999991 422.27689372034223,413.6548825249785 445.96373258702204,422.94023113755367 470.87908937236375,428.0889232639324 496.3061946249288,428.9528404058389 521.5135568216151,425.5071292400306 545.7760060469527,417.8509166031573 568.3955558112589,406.2044577931505 588.721482851125,390.9028002253199 606.1690472529363,372.3861447282342 620.2363143555532,351.18718176735484 630.5185944966422,327.9157669102115 636.7200851974446,303.2413763920859 638.662380861524,277.87384750363475 636.2896051789535,252.54295786443518 629.6700185860188,227.97743104957232 618.9940545367479,204.8839725391677 604.5688410791594,183.92693908841156 586.809365340508,165.7092263933074 566.2265351031988,150.75492487918737 543.4124809180943,139.4942425733845 519.0235215866562,132.25112880356403 493.7612830639834,129.23395476537962 468.3525139575314,130.52951906255498 443.52817829286334,136.1005506690883 420.00242700949747,145.78678114881131 398.45205313862874,159.30955528649787 379.4970216998551,176.2798474910596 363.6826344363312,196.2094533535045 351.46384247644625,218.5250343989121 343.19215821818756,242.5846119904822 339.1055429574476,267.6960358860679 339.3215611747963,293.1368961404476 343.8339984194237,318.17530552416054 352.5130400875759,342.0909545865545 365.1090059523514,364.195833647217 381.25953300923806,383.85402558182477 400.4999999999997,400.49999999999915" stroke="#ffff00" stroke-linecap="round" stroke-width="2" /><polyline clip-path="url(#border_clip)" fill="none" points="400.4999999999997,400.49999999999915 423.5326572727909,411.30651346675825 448.0603203791411,418.06504710168906 473.3773731088845,420.58117019734584 498.75548994962827,418.78249847336036 523.4645886856852,412.72077644039837 546.7938335341616,402.57038880479854 568.0720845962163,388.6233437380729 586.6872053300079,371.2808723334701 602.1036726044904,351.0418859179423 613.8779827248682,328.48862328163455 621.6714102264104,304.26990072797145 625.2597523893555,279.0824468099047 624.5397791429536,253.65085871797515 619.5322028066518,228.70675693841181 610.3810822343742,204.9677378638009 597.3496785035818,183.1167298513957 580.8128813733925,163.782346617683 561.2464243887712,147.52080316627377 539.2131988926069,134.79991449494742 515.3470606666315,125.98563740991426 490.3345950546378,121.33154261479689 464.8953651522014,120.9715199431617 439.7612112865261,124.91592659178002 415.65519730268863,133.0512891629342 393.2708093332948,145.14356808746953 373.2520054650714,160.8448905170839 356.17469023716296,179.70355799280313 342.53014691608666,201.1770409872402 332.7109041706325,224.6475864913172 326.9994437367368,249.43998964359653 325.560073932253,274.84101814480186 328.4342028058021,300.1199306524897 335.53914690260524,324.54949887901404 346.6705099169367,347.4269286253006 361.5080628016957,368.09407789038033 379.6249561750523,385.95639041848074 400.4999999999997,400.499999999999" stroke="#ff007f" stroke-linecap="round" stroke-width="2" /><polyline clip-path="url(#border_clip)" fill="none" points="400.4999999999997,400.499999999999 424.5360702122654,408.8397459855876 449.63582734854936,412.9974167340557 475.0771970950535,412.853403627822 500.1282775651563,408.41184966174876 524.0683947841202,399.800530256723 546.2088351672173,387.26717739343746 565.9126585556244,371.17235281435086 582.6130218251177,351.97907531883016 595.8294859307089,330.23950055530906 605.1818372632358,306.5790365085899 610.4010257026448,281.6783516507985 611.3369047000865,256.2537933487305 607.9625507207551,231.0367798543598 600.3750377849651,206.75275873341843 588.7926448253294,184.10033705974996 573.5485761992867,163.7311837617455 555.0813760064024,146.23128229376462 533.9223119730791,132.1040729590507 510.6800918473445,121.75596984881815 486.0233519852124,115.4846690488045 460.6614219001031,113.47058446489746 435.32391814421527,115.77165764354152 410.7397545687288,122.32169089894046 387.61617279943664,132.93225169995196 366.6183961828418,147.29809353093034 348.35049252164816,165.00593727822076 333.3379961438997,185.54636051780363 322.01278923720105,208.3284526709306 314.70067738450547,232.69681442560696 311.61201673068655,257.95041238151526 312.83566241924433,283.36274650457403 318.3364123916051,308.20275021018324 327.9560200862543,331.75582181781334 341.41774690419254,353.3443823402823 358.3343234745721,372.347368197552 378.21909068939647,388.218098085158 400.4999999999998,400.49999999999903" stroke="#00ffff" stroke-linecap="round" stroke-width="2" /><polyline clip-path="url(#border_clip)" fill="none" points="400.4999999999998,400.49999999999903 425.2761389366233,406.281606502195 450.672991911194,407.79286205343163 475.95993770356733,404.99029058303597 500.4095169231231,397.95451696958213 523.3183596909514,386.8879476099286 544.0274203106469,372.10894755570024 561.9409368130728,354.04268173039975 576.5435699435116,333.2088837086535 587.4152285337478,310.2069039275467 594.2431547601193,285.6984674657825 596.8309216166674,260.38863741796797 595.1040837624645,235.00553151308713 589.11231917853,210.27937549311883 579.0280000227658,186.92149584795862 565.1412337968092,165.60385624741335 547.8515174814095,146.93972636986194 527.6562447356534,131.46603925018587 505.13639678699604,119.62794469394697 480.9398286591361,111.76600312796376 455.7626315625314,108.10638829688855 430.32910761764396,108.75438065636746 405.3709330016677,113.69133864601497 381.60610895707015,122.77523497316571 359.71830620310817,135.74474247949598 340.337196973991,152.22675204757155 324.02034049514367,171.74710627083817 311.23714301943676,193.74424009891192 302.35535386393735,217.58533604163983 297.6304859316163,242.5845291761238 297.1984650703411,268.022638231801 301.0717197337123,293.16785512618833 309.13882343708167,317.2967977510152 321.16770029464203,339.7153203584208 336.81230142012225,359.7784828702913 355.62256012319597,376.90910463006827 377.0573395087275,390.6143688393675 400.4999999999997,400.4999999999991" stroke="#7fff00" stroke-linecap="round" stroke-width="2" /><polyline clip-path="url(#border_clip)" fill="none" points="400.4999999999997,400.4999999999991 425.74475509805103,403.6601225280855 451.16045067508594,402.50840525002076 476.01592344359364,397.0779809749685 499.5961267062695,387.52507312217347 521.2227009476144,374.1245014576249 540.2734890021095,357.26177602975247 556.2004343831093,337.42200674722926 568.545347870119,315.1759476501363 576.9530887784448,291.1635773553993 581.1817817100894,266.07568803718516 581.1097748685713,240.63401259377378 576.7391397596184,215.57046170613032 568.19561159772,191.6060681002 555.7249721329313,169.43024374816383 539.6859789574181,149.68094674120815 520.5400447027187,132.9263283967685 498.837963038426,119.6483885795576 475.204063341141,110.22910944303243 450.3182498750218,104.93946649831247 424.8964421840021,103.93163314208863 399.66997938998384,107.23460290506188 375.36458089784566,114.75335536085345 352.6794687694787,126.27158969066829 332.2672523781365,141.4579472640341 314.7151540249691,159.8755442232968 300.52811562257205,180.99453983677276 290.11427243550656,204.2073790519208 283.7732117718279,228.84627074803112 281.6873544016901,254.20239887092376 283.916706643921,279.5463137802894 290.39713409348303,304.14891718773526 300.9422066515369,327.3024369870765 315.24856177995264,348.3407885691933 332.90463168920087,366.65873686349863 353.4024833943182,381.7293078489697 376.1524310220931,393.1189486372741 400.49999999999966,400.49999999999915" stroke="#bf00ff" stroke-linecap="round" stroke-width="2" /><polyline clip-path="url(#border_clip)" fill="none" points="400.49999999999966,400.49999999999915 425.9367844398199,401.00401559026 451.0928629400008,397.2019439384047 475.244540923649,389.2031637234428 497.69701858802443,377.23778528881616 517.8043790298461,361.6500307867793 534.9881700985819,342.8883315338028 548.7540454116339,321.49242745805475 558.7059857997117,298.07783976437 564.5576920573025,273.31816350986344 566.1408212495502,247.925689500548 563.4098296319899,222.63091298171074 556.4432828611549,198.16151861971488 545.4415958036824,175.2214463390409 530.7212669654946,154.47064025231933 512.7057734060309,136.50606326976754 491.9133880742706,121.84452356315063 468.9422700396077,110.90780693562982 444.4532565444901,104.01054281214903 419.15085192013777,101.35115292372365 393.76296027962115,103.00614307550467 369.01994504182,108.92790221405829 345.6336177056313,118.94607211068814 324.2767603291383,132.7724482575041 305.56377081473033,150.009270986382 290.03298780008265,170.1606682904162 278.13120363570124,192.64692115872631 270.20081098247147,216.8211410369086 266.46995279819714,241.98787963295914 267.0459590800835,267.4231356984351 271.91225917613264,292.395183226187 280.92885849263155,316.1856218753337 293.83636588372553,338.1100440410821 310.26345586241246,357.53772401541846 329.73755095873287,373.909762817369 351.6984169131613,386.7551666990977 375.5142795962369,395.70439677849504 400.49999999999966,400.4999999999991" stroke="#ffff00" stroke-linecap="round" stroke-width="2" /></svg>